<svg id="Livello_1" data-name="Livello 1" xmlns="http://www.w3.org/2000/svg" xmlns:xlink="http://www.w3.org/1999/xlink" viewBox="0 0 512 512"><defs><style>.cls-1{fill:url(#Grad);}</style><linearGradient id="Grad" x1="74.98284" y1="437.01708" x2="479.73275" y2="32.26717" gradientUnits="userSpaceOnUse"><stop offset="0" stop-color="#0072ce"/><stop offset="1" stop-color="#00b5e2"/></linearGradient></defs><path class="cls-1" d="M261.76316,97.90422A158.20855,158.20855,0,1,0,414.09543,250.23653a37.34786,37.34786,0,0,1,21.15917-35.03094A412.92557,412.92557,0,0,0,483.303,188.06037a14.26566,14.26566,0,0,1,21.70628,8.61865A255.98673,255.98673,0,1,1,315.32066,6.991a14.2656,14.2656,0,0,1,8.61922,21.70629,412.75137,412.75137,0,0,0-27.14579,48.04837A37.34825,37.34825,0,0,1,261.76316,97.90422ZM437.00237,14.56775a60.43011,60.43011,0,1,0,60.43009,60.4301A60.43009,60.43009,0,0,0,437.00237,14.56775Z"/></svg>